<svg height="512pt" viewBox="0 0 512 512" width="512pt" xmlns="http://www.w3.org/2000/svg"><path d="m240 464h-208c-17.671875 0-32-14.328125-32-32v-352c0-17.671875 14.328125-32 32-32h208zm0 0" fill="#008dff"/><path d="m240 0c8.835938 0 16 7.164062 16 16v480c0 8.835938-7.164062 16-16 16s-16-7.164062-16-16v-480c0-8.835938 7.164062-16 16-16zm0 0" fill="#57565c"/><g fill="#ccdade"><path d="m352 48h32v32h-32zm0 0"/><path d="m288 48h32v32h-32zm0 0"/><path d="m416 48h32v32h-32zm0 0"/><path d="m480 48h32v32h-32zm0 0"/><path d="m352 432h32v32h-32zm0 0"/><path d="m288 432h32v32h-32zm0 0"/><path d="m416 432h32v32h-32zm0 0"/><path d="m480 432h32v32h-32zm0 0"/><path d="m480 368h32v32h-32zm0 0"/><path d="m480 304h32v32h-32zm0 0"/><path d="m480 240h32v32h-32zm0 0"/><path d="m480 176h32v32h-32zm0 0"/><path d="m480 112h32v32h-32zm0 0"/></g></svg>