<?xml version="1.0" encoding="utf-8"?>
<!-- Generator: Adobe Illustrator 19.2.1, SVG Export Plug-In . SVG Version: 6.00 Build 0)  -->
<svg version="1.1" id="Layer_1" xmlns="http://www.w3.org/2000/svg" xmlns:xlink="http://www.w3.org/1999/xlink" x="0px" y="0px"
	 viewBox="0 0 240 240" enable-background="new 0 0 240 240" xml:space="preserve">
<g>
	<polygon fill-rule="evenodd" clip-rule="evenodd" fill="#48AAB5" points="20.2,154.5 120.1,85.9 220,154.5 120.1,223.2 	"/>
	<path fill="#1D1D1D" d="M120.1,90.7l92.9,63.8l-92.9,63.8l-92.9-63.8L120.1,90.7 M120.1,81l-107,73.5l107,73.6l107-73.6L120.1,81
		L120.1,81z"/>
</g>
<g>
	<polygon fill-rule="evenodd" clip-rule="evenodd" fill="#BDBDBD" points="20.2,118.5 120.1,49.9 220,118.5 120.1,187.2 	"/>
	<path fill="#1D1D1D" d="M120.1,54.7l92.9,63.8l-92.9,63.8l-92.9-63.8L120.1,54.7 M120.1,45l-107,73.5l107,73.6l107-73.6L120.1,45
		L120.1,45z"/>
</g>
<g id="XMLID_11_">
	<polygon fill-rule="evenodd" clip-rule="evenodd" fill="#48AAB5" points="20.2,85.5 120.1,16.9 220,85.5 120.1,154.2 	"/>
	<path fill="#1D1D1D" d="M120.1,21.7l92.9,63.8l-92.9,63.8L27.2,85.5L120.1,21.7 M120.1,12l-107,73.5l107,73.6l107-73.6L120.1,12
		L120.1,12z"/>
</g>
<g>
	<path fill="none" d="M140.5,117.7c12-32.5,42-45.5,57.4-50.2L178.2,54c-14.8,5.4-37.9,17.7-47.4,43.6c-7,19-23.2,30.7-46.7,33.8
		c-0.4,0.1-0.8,0.1-1.2,0.1l20.8,14.3C122.5,142.5,134.8,133.1,140.5,117.7z"/>
	<path fill="none" d="M37.6,89.1c20.6-2.7,34-12.3,40-28.6c9.1-24.7,28.7-38.2,44.3-45.3L120,14L16,85.4l6.3,4.3
		C26.9,89.9,32.1,89.8,37.6,89.1z"/>
	<path fill="none" d="M123.3,94.8c9.6-26.1,30.9-39.6,46.8-46.4L154,37.3c-14.8,5.7-36.8,18-46.1,43.1c-7,19-23.2,30.7-46.7,33.8
		c-1,0.1-2,0.2-3,0.3l14,9.6c3.5,0,7.2-0.2,11-0.7C103.9,120.7,117.4,111.1,123.3,94.8z"/>
	<path fill="none" d="M206.6,73.5c-8.8,2-45.9,12.4-58.6,47c-5.8,15.8-17.9,26.5-35.3,31.4l7.3,5l104-71.5L206.6,73.5z"/>
	<path fill="none" d="M60.5,106.2c20.6-2.7,34-12.3,40-28.6c9.3-25.4,29.8-38.9,45.6-45.8l-16.2-11.1c-14.7,5.9-35.8,18.2-44.7,42.6
		c-7,19-23.2,30.7-46.7,33.8c-1.6,0.2-3.2,0.4-4.8,0.5l13.7,9.4C51.4,107,55.8,106.8,60.5,106.2z"/>
	<path fill="#1D1D1D" d="M85.1,63.3c9-24.4,30-36.7,44.7-42.6l-7.9-5.5c-15.6,7.1-35.2,20.5-44.3,45.3c-6,16.2-19.4,25.8-40,28.6
		c-5.4,0.7-10.7,0.8-15.3,0.7l11.3,7.8c1.6-0.1,3.2-0.3,4.8-0.5C61.9,94,78.1,82.3,85.1,63.3z"/>
	<path fill="#1D1D1D" d="M148,120.5c12.7-34.6,49.8-45,58.6-47l-8.7-6c-15.4,4.7-45.4,17.7-57.4,50.2c-5.7,15.4-18,24.8-36.7,28
		l8.9,6.1C130.1,147,142.2,136.3,148,120.5z"/>
	<path fill="#1D1D1D" d="M130.8,97.6c9.5-25.9,32.6-38.2,47.4-43.6l-8.1-5.5c-16,6.7-37.2,20.3-46.8,46.4c-6,16.2-19.4,25.8-40,28.6
		c-3.8,0.5-7.6,0.7-11,0.7l10.7,7.4c0.4,0,0.8-0.1,1.2-0.1C107.7,128.3,123.8,116.6,130.8,97.6z"/>
	<path fill="#1D1D1D" d="M108,80.4c9.2-25.1,31.3-37.4,46.1-43.1l-8-5.5c-15.8,6.9-36.2,20.4-45.6,45.8c-6,16.2-19.4,25.8-40,28.6
		c-4.6,0.6-9.1,0.8-13.1,0.7l11,7.6c1-0.1,2-0.2,3-0.3C84.8,111.2,101,99.5,108,80.4z"/>
</g>
<rect fill-rule="evenodd" clip-rule="evenodd" fill="none" width="240" height="240"/>
</svg>
