<svg height="512pt" viewBox="0 0 512 512" width="512pt" xmlns="http://www.w3.org/2000/svg"><path d="m280.996094 331.804688c62.074218-33.644532 95.394531-92.28125 74.421875-130.972657-20.96875-38.6875-88.289063-42.777343-150.363281-9.132812-62.074219 33.644531-95.390626 92.285156-74.421876 130.972656 20.972657 38.691406 88.292969 42.78125 150.363282 9.132813zm0 0" fill="#71c799"/><path d="m130.625 322.703125c-20.972656-38.691406 12.351562-97.335937 74.429688-130.984375 62.078124-33.648438 129.394531-29.558594 150.367187 9.132812-7.539063-13.910156-63.972656 2.085938-126.050781 35.734376-62.074219 33.648437-106.285156 72.207031-98.746094 86.117187zm0 0" fill="#33a39d"/><path d="m327.628906 296.824219c1.382813-24.109375-3.773437-49.082031-16.25-72.097657-12.476562-23.015624-30.585937-40.96875-51.542968-52.96875 42.863281-8.296874 80.78125 1.777344 95.589843 29.09375 14.804688 27.316407 2.546875 64.585938-27.796875 95.972657zm0 0" fill="#65687f"/><path d="m259.835938 171.757812c14.65625 8.390626 27.910156 19.703126 38.828124 33.613282 30.238282-10.457032 52.246094-12.839844 56.757813-4.519532-.027344-.054687-.058594-.105468-.089844-.160156-14.867187-27.195312-52.71875-37.210937-95.496093-28.933594zm0 0" fill="#3a3d51"/><path d="m256 7.605469c-137.1875 0-248.394531 111.207031-248.394531 248.394531s111.207031 248.394531 248.394531 248.394531 248.394531-111.207031 248.394531-248.394531-111.207031-248.394531-248.394531-248.394531zm-203.714844 248.394531c0-69.039062 34.351563-130.050781 86.890625-166.894531l194.460938 355.277343c-23.925781 9.871094-50.144531 15.332032-77.636719 15.332032-112.507812 0-203.714844-91.207032-203.714844-203.714844zm320.53125 166.898438-194.460937-355.277344c23.929687-9.875 50.148437-15.335938 77.644531-15.335938 112.507812 0 203.703125 91.207032 203.703125 203.714844 0 69.042969-34.347656 130.054688-86.886719 166.898438zm0 0" fill="#ff5a73"/><path d="m437.019531 74.980469c-48.351562-48.351563-112.640625-74.980469-181.019531-74.980469s-132.667969 26.628906-181.019531 74.980469c-48.351563 48.351562-74.980469 112.640625-74.980469 181.019531s26.628906 132.667969 74.980469 181.019531c48.351562 48.351563 112.640625 74.980469 181.019531 74.980469s132.667969-26.628906 181.019531-74.980469c48.351563-48.351562 74.980469-112.640625 74.980469-181.019531s-26.628906-132.667969-74.980469-181.019531zm-10.753906 351.285156c-45.480469 45.480469-105.949219 70.527344-170.265625 70.527344s-124.785156-25.046875-170.265625-70.527344-70.527344-105.949219-70.527344-170.265625 25.046875-124.785156 70.527344-170.265625 105.949219-70.527344 170.265625-70.527344 124.785156 25.046875 170.265625 70.527344 70.527344 105.949219 70.527344 170.265625-25.046875 124.785156-70.527344 170.265625zm0 0"/><path d="m416.832031 118.929688c-32.183593-37.734376-76.691406-63.046876-125.324219-71.273438-4.148437-.699219-8.066406 2.089844-8.765624 6.230469-.703126 4.140625 2.085937 8.0625 6.226562 8.765625 45.121094 7.628906 86.421875 31.121094 116.296875 66.148437 30.203125 35.410157 46.835937 80.582031 46.835937 127.199219 0 61.035156-28.546874 118.589844-76.78125 155.636719l-51.1875-93.515625 5.019532 1.035156c2.730468.5625 5.519531.839844 8.316406.839844 10.34375 0 20.847656-3.773438 29.285156-10.730469 7.085938-5.851563 16.601563-8.429687 24.84375-6.730469l3.367188.695313c4.109375.847656 8.136718-1.796875 8.984375-5.910157.847656-4.113281-1.796875-8.136718-5.914063-8.984374l-3.363281-.691407c-12.824219-2.648437-26.882813 1.046875-37.597656 9.890625-7.089844 5.847656-16.609375 8.425782-24.847657 6.726563l-1.019531-.210938c14.261719-14.273437 25.011719-29.886719 31.476563-45.875 5.53125-13.683593 7.59375-26.855469 6.234375-39.011719 22.359375-5.804687 46.449219 4.53125 57.910156 25.671876 1.378906 2.542968 3.992187 3.984374 6.691406 3.984374 1.226563 0 2.46875-.296874 3.617188-.921874 3.691406-2 5.0625-6.617188 3.0625-10.308594-14.773438-27.257813-45.863281-40.605469-74.828125-33.214844-.929688-2.441406-2.011719-4.832031-3.265625-7.152344-1.257813-2.316406-2.664063-4.523437-4.203125-6.632812 21.996094-20.234375 27.785156-53.570313 13.007812-80.824219-2-3.691406-6.617187-5.0625-10.308594-3.0625-3.691406 2.003906-5.0625 6.617187-3.0625 10.308594 11.460938 21.140625 6.972657 46.964843-10.089843 62.53125-9.496094-7.820313-21.75-13.296875-36.355469-16.117188-16.871094-3.253906-35.71875-2.757812-55.355469 1.375l.375-.957031c3.070313-7.828125 10.429688-14.398438 19.199219-17.144531 13.257812-4.15625 24.027344-13.914063 28.808594-26.105469l1.257812-3.199219c1.53125-3.910156-.394531-8.324219-4.304687-9.855469-3.914063-1.535156-8.320313.390626-9.855469 4.300782l-1.253906 3.199218c-3.070313 7.828126-10.429688 14.398438-19.199219 17.144532-13.257813 4.15625-24.027344 13.914062-28.808594 26.105468l-2.214843 5.644532-50.550782-92.355469c21.378906-7.761719 43.8125-11.6875 66.808594-11.6875 1.261719 0 2.511719.007813 3.773438.046875 4.203124.128906 7.703124-3.171875 7.832031-7.371094.128906-4.195312-3.171875-7.703125-7.371094-7.832031-1.414063-.042969-2.816406-.050781-4.234375-.050781-27.859375 0-54.957031 5.351562-80.542969 15.914062-1.996093.824219-3.550781 2.460938-4.269531 4.496094-.71875 2.039062-.535156 4.285156.5 6.183594l194.460938 355.277344c1.035156 1.898437 2.835937 3.261718 4.941406 3.753906.570312.132812 1.148437.199218 1.726562.199218 1.550782 0 3.074219-.472656 4.367188-1.378906 56.433594-39.578125 90.125-104.296875 90.125-173.128906 0-50.230469-17.925782-98.910156-50.476563-137.070312zm-167.242187 62.996093c2.976562-.804687 5.9375-1.515625 8.867187-2.136719 17.199219 10.363282 31.707031 24.746094 42.402344 41.996094l-22.714844 12.3125zm58.515625 53.230469c8.609375 18.363281 12.738281 38.363281 12.042969 58.421875-1.996094 1.992187-4.0625 3.960937-6.214844 5.902344l-28.488282-52.042969zm40.628906-30.6875c10.667969 19.6875 4.839844 46.617188-13.867187 72.082031-1.738282-19.257812-7.414063-38.113281-16.796876-55.425781-.003906-.007812-.003906-.011719-.007812-.015625 0-.003906-.003906-.007813-.003906-.011719-9.390625-17.320312-22.101563-32.375-37.296875-44.347656 31.554687-1.796875 57.285156 8.003906 67.972656 27.71875zm0 0"/><path d="m145.847656 85.453125c-1.039062-1.898437-2.839844-3.261719-4.945312-3.753906-2.101563-.492188-4.320313-.0625-6.09375 1.179687-56.433594 39.578125-90.128906 104.296875-90.128906 173.121094 0 116.523438 94.796874 211.320312 211.320312 211.320312 27.859375 0 54.957031-5.351562 80.539062-15.910156 2-.824218 3.550782-2.460937 4.269532-4.496094.722656-2.039062.539062-4.289062-.5-6.183593zm-11.554687 226.613281c-4.761719-14.449218-2.195313-31.996094 7.527343-50.285156 10.878907-20.464844 29.5625-39.816406 53.035157-55.113281l30.632812 55.964843zm121.707031 140.042969c-108.136719 0-196.109375-87.972656-196.109375-196.109375 0-61.03125 28.546875-118.582031 76.78125-155.628906l40.40625 73.816406c-2.738281-.695312-5.53125-1.179688-8.359375-1.402344-11.984375-.945312-22.441406-7.875-27.976562-18.542968-1.933594-3.726563-6.527344-5.179688-10.25-3.246094-3.726563 1.933594-5.179688 6.523437-3.246094 10.25 7.964844 15.359375 23.023437 25.339844 40.28125 26.699218 5.839844.457032 11.507812 2.40625 16.382812 5.632813.511719.339844 1.003906.710937 1.496094 1.078125-6.488281 4.292969-12.640625 8.886719-18.402344 13.71875-3.480468-.878906-7.046875-1.394531-10.65625-1.507812-8.433594-.253907-16.847656 1.644531-24.335937 5.503906-10.6875 5.5-23.230469 5.105468-33.546875-1.054688-3.601563-2.152344-8.273438-.976562-10.425782 2.628906-2.152343 3.605469-.976562 8.273438 2.628907 10.429688 7.890625 4.710938 16.679687 7.078125 25.496093 7.078125 7.785157 0 15.589844-1.847656 22.808594-5.5625 4.132813-2.128906 8.679688-3.390625 13.296875-3.730469-9.769531 10.21875-17.867187 21.179688-23.878906 32.480469-13.828125 26.015625-15.410156 51.472656-4.449219 71.683594 7.6875 14.191406 21.125 24.789062 38.859375 30.648437.792969.261719 1.597657.386719 2.386719.386719 3.191406 0 6.164062-2.027344 7.21875-5.222656 1.316406-3.984375-.847656-8.285157-4.835938-9.605469-11.070312-3.660156-19.921874-9.507812-26.019531-17.101562l91.238281-49.453126 30.660157 56.007813c-22.960938 10.199219-46.957031 15.503906-68.3125 14.992187-4.226563-.121093-7.683594 3.21875-7.785157 7.417969-.101562 4.199219 3.222657 7.683594 7.417969 7.785157 1.058594.023437 2.121094.039062 3.1875.039062 9.277344 0 18.941407-.960938 28.75-2.808594-2.816406 3.703125-6.359375 6.832032-10.414062 9.140625-15.035157 8.574219-24.410157 24.015625-25.085938 41.300781-.164062 4.199219 3.105469 7.734376 7.300781 7.898438.101563.003906.199219.003906.300782.003906 4.0625 0 7.433594-3.210937 7.59375-7.308594.46875-12.003906 6.984375-22.726562 17.421875-28.679687 7.324219-4.171875 13.515625-10.183594 17.90625-17.398437 1.875-3.089844 3.394531-6.367188 4.554687-9.78125 6.53125-1.980469 13.054688-4.339844 19.511719-7.050782-1.234375 5.472656-3.789063 10.601563-7.4375 14.867188-11.234375 13.164062-14.824219 30.867187-9.601563 47.359375 1.027344 3.238281 4.019532 5.308593 7.246094 5.308593.761719 0 1.535156-.113281 2.300782-.355468 4.003906-1.269532 6.21875-5.542969 4.953124-9.546875-3.628906-11.453125-1.136718-23.75 6.664063-32.886719 3.441406-4.023438 6.210937-8.578125 8.214844-13.457031l44.667969 81.605469c-21.375 7.753906-43.808594 11.679687-66.804688 11.679687zm0 0"/></svg>